<mxfile host="65bd71144e">
    <diagram id="4E5uwBaWZQzsXhgoa6fP" name="Page-1">
        <mxGraphModel dx="4020" dy="978" grid="1" gridSize="10" guides="1" tooltips="1" connect="1" arrows="1" fold="1" page="1" pageScale="1" pageWidth="850" pageHeight="1100" math="0" shadow="0">
            <root>
                <mxCell id="0"/>
                <mxCell id="1" parent="0"/>
                <mxCell id="12" style="edgeStyle=orthogonalEdgeStyle;curved=1;html=1;entryX=0.5;entryY=0;entryDx=0;entryDy=0;fontSize=18;" parent="1" source="4" target="5" edge="1">
                    <mxGeometry relative="1" as="geometry"/>
                </mxCell>
                <mxCell id="13" style="edgeStyle=orthogonalEdgeStyle;curved=1;html=1;fontSize=18;" parent="1" source="4" target="6" edge="1">
                    <mxGeometry relative="1" as="geometry"/>
                </mxCell>
                <mxCell id="4" value="&lt;div style=&quot;color: rgb(191, 189, 182); background-color: rgb(13, 16, 23); font-family: Consolas, &amp;quot;Courier New&amp;quot;, monospace; font-weight: normal; font-size: 18px; line-height: 19px;&quot;&gt;&lt;div style=&quot;font-size: 18px;&quot;&gt;&lt;span style=&quot;color: rgb(255, 143, 64); font-size: 18px;&quot;&gt;class&lt;/span&gt;&lt;span style=&quot;color: rgb(191, 189, 182); font-size: 18px;&quot;&gt; &lt;/span&gt;&lt;span style=&quot;color: rgb(89, 194, 255); font-size: 18px;&quot;&gt;Content&lt;/span&gt;&lt;span style=&quot;color: rgb(191, 189, 182); font-size: 18px;&quot;&gt;(&lt;/span&gt;&lt;span style=&quot;color: rgb(89, 194, 255); font-size: 18px;&quot;&gt;models&lt;/span&gt;&lt;span style=&quot;color: rgb(191, 189, 182); font-size: 18px;&quot;&gt;.&lt;/span&gt;&lt;span style=&quot;color: rgb(89, 194, 255); font-size: 18px;&quot;&gt;Model&lt;/span&gt;&lt;span style=&quot;color: rgb(191, 189, 182); font-size: 18px;&quot;&gt;):&lt;/span&gt;&lt;/div&gt;&lt;div style=&quot;font-size: 18px;&quot;&gt;&lt;span style=&quot;color: rgb(191, 189, 182); font-size: 18px;&quot;&gt;&amp;nbsp; &amp;nbsp; &lt;/span&gt;&lt;/div&gt;&lt;div style=&quot;font-size: 18px;&quot;&gt;&lt;span style=&quot;color: rgb(191, 189, 182); font-size: 18px;&quot;&gt;&amp;nbsp; &amp;nbsp; &lt;/span&gt;&lt;span style=&quot;color: rgb(191, 189, 182); font-size: 18px;&quot;&gt;created_at&lt;/span&gt;&lt;span style=&quot;color: rgb(191, 189, 182); font-size: 18px;&quot;&gt; &lt;/span&gt;&lt;span style=&quot;color: rgb(242, 150, 104); font-size: 18px;&quot;&gt;=&lt;/span&gt;&lt;span style=&quot;color: rgb(191, 189, 182); font-size: 18px;&quot;&gt; &lt;/span&gt;&lt;span style=&quot;color: rgb(89, 194, 255); font-size: 18px;&quot;&gt;models&lt;/span&gt;&lt;span style=&quot;color: rgb(191, 189, 182); font-size: 18px;&quot;&gt;.&lt;/span&gt;&lt;span style=&quot;color: rgb(89, 194, 255); font-size: 18px;&quot;&gt;DateTimeField&lt;/span&gt;&lt;span style=&quot;color: rgb(191, 189, 182); font-size: 18px;&quot;&gt;(auto_created&lt;/span&gt;&lt;span style=&quot;color: rgb(242, 150, 104); font-size: 18px;&quot;&gt;=&lt;/span&gt;&lt;span style=&quot;color: rgb(210, 166, 255); font-size: 18px;&quot;&gt;True&lt;/span&gt;&lt;span style=&quot;color: rgb(191, 189, 182); font-size: 18px;&quot;&gt;,&lt;/span&gt;&lt;span style=&quot;color: rgb(191, 189, 182); font-size: 18px;&quot;&gt;auto_now_add&lt;/span&gt;&lt;span style=&quot;color: rgb(242, 150, 104); font-size: 18px;&quot;&gt;=&lt;/span&gt;&lt;span style=&quot;color: rgb(210, 166, 255); font-size: 18px;&quot;&gt;True&lt;/span&gt;&lt;span style=&quot;color: rgb(191, 189, 182); font-size: 18px;&quot;&gt;)&lt;/span&gt;&lt;/div&gt;&lt;div style=&quot;font-size: 18px;&quot;&gt;&lt;span style=&quot;color: rgb(191, 189, 182); font-size: 18px;&quot;&gt;&amp;nbsp; &amp;nbsp; &lt;/span&gt;&lt;span style=&quot;color: rgb(191, 189, 182); font-size: 18px;&quot;&gt;show_until&lt;/span&gt;&lt;span style=&quot;color: rgb(191, 189, 182); font-size: 18px;&quot;&gt; &lt;/span&gt;&lt;span style=&quot;color: rgb(242, 150, 104); font-size: 18px;&quot;&gt;=&lt;/span&gt;&lt;span style=&quot;color: rgb(191, 189, 182); font-size: 18px;&quot;&gt; &lt;/span&gt;&lt;span style=&quot;color: rgb(89, 194, 255); font-size: 18px;&quot;&gt;models&lt;/span&gt;&lt;span style=&quot;color: rgb(191, 189, 182); font-size: 18px;&quot;&gt;.&lt;/span&gt;&lt;span style=&quot;color: rgb(89, 194, 255); font-size: 18px;&quot;&gt;DateTimeField&lt;/span&gt;&lt;span style=&quot;color: rgb(191, 189, 182); font-size: 18px;&quot;&gt;()&lt;/span&gt;&lt;/div&gt;&lt;div style=&quot;font-size: 18px;&quot;&gt;&lt;span style=&quot;color: rgb(191, 189, 182); font-size: 18px;&quot;&gt;&amp;nbsp; &amp;nbsp; &lt;/span&gt;&lt;span style=&quot;color: rgb(191, 189, 182); font-size: 18px;&quot;&gt;show_since&lt;/span&gt;&lt;span style=&quot;color: rgb(191, 189, 182); font-size: 18px;&quot;&gt; &lt;/span&gt;&lt;span style=&quot;color: rgb(242, 150, 104); font-size: 18px;&quot;&gt;=&lt;/span&gt;&lt;span style=&quot;color: rgb(191, 189, 182); font-size: 18px;&quot;&gt; &lt;/span&gt;&lt;span style=&quot;color: rgb(89, 194, 255); font-size: 18px;&quot;&gt;models&lt;/span&gt;&lt;span style=&quot;color: rgb(191, 189, 182); font-size: 18px;&quot;&gt;.&lt;/span&gt;&lt;span style=&quot;color: rgb(89, 194, 255); font-size: 18px;&quot;&gt;DateTimeField&lt;/span&gt;&lt;span style=&quot;color: rgb(191, 189, 182); font-size: 18px;&quot;&gt;()&lt;/span&gt;&lt;/div&gt;&lt;div style=&quot;font-size: 18px;&quot;&gt;&lt;span style=&quot;color: rgb(191, 189, 182); font-size: 18px;&quot;&gt;&amp;nbsp; &amp;nbsp; &lt;/span&gt;&lt;/div&gt;&lt;div style=&quot;font-size: 18px;&quot;&gt;&lt;span style=&quot;color: rgb(191, 189, 182); font-size: 18px;&quot;&gt;&amp;nbsp; &amp;nbsp; &lt;/span&gt;&lt;span style=&quot;color: rgb(255, 143, 64); font-size: 18px;&quot;&gt;class&lt;/span&gt;&lt;span style=&quot;color: rgb(191, 189, 182); font-size: 18px;&quot;&gt; &lt;/span&gt;&lt;span style=&quot;color: rgb(89, 194, 255); font-size: 18px;&quot;&gt;Meta&lt;/span&gt;&lt;span style=&quot;color: rgb(191, 189, 182); font-size: 18px;&quot;&gt;:&lt;/span&gt;&lt;/div&gt;&lt;div style=&quot;font-size: 18px;&quot;&gt;&lt;span style=&quot;color: rgb(191, 189, 182); font-size: 18px;&quot;&gt;&amp;nbsp; &amp;nbsp; &amp;nbsp; &amp;nbsp; &lt;/span&gt;&lt;span style=&quot;color: rgb(191, 189, 182); font-size: 18px;&quot;&gt;abstract&lt;/span&gt;&lt;span style=&quot;color: rgb(191, 189, 182); font-size: 18px;&quot;&gt; &lt;/span&gt;&lt;span style=&quot;color: rgb(242, 150, 104); font-size: 18px;&quot;&gt;=&lt;/span&gt;&lt;span style=&quot;color: rgb(191, 189, 182); font-size: 18px;&quot;&gt; &lt;/span&gt;&lt;span style=&quot;color: rgb(210, 166, 255); font-size: 18px;&quot;&gt;True&lt;/span&gt;&lt;/div&gt;&lt;div style=&quot;font-size: 18px;&quot;&gt;&lt;span style=&quot;color: rgb(191, 189, 182); font-size: 18px;&quot;&gt;&amp;nbsp; &amp;nbsp; &amp;nbsp; &amp;nbsp; &lt;/span&gt;&lt;span style=&quot;color: rgb(191, 189, 182); font-size: 18px;&quot;&gt;ordering&lt;/span&gt;&lt;span style=&quot;color: rgb(191, 189, 182); font-size: 18px;&quot;&gt; &lt;/span&gt;&lt;span style=&quot;color: rgb(242, 150, 104); font-size: 18px;&quot;&gt;=&lt;/span&gt;&lt;span style=&quot;color: rgb(191, 189, 182); font-size: 18px;&quot;&gt; [&lt;/span&gt;&lt;span style=&quot;color: rgb(170, 217, 76); font-size: 18px;&quot;&gt;'-created_at'&lt;/span&gt;&lt;span style=&quot;color: rgb(191, 189, 182); font-size: 18px;&quot;&gt;]&lt;/span&gt;&lt;/div&gt;&lt;br style=&quot;font-size: 18px;&quot;&gt;&lt;/div&gt;" style="text;whiteSpace=wrap;html=1;fontSize=18;" parent="1" vertex="1">
                    <mxGeometry x="-1650" y="150" width="740" height="210" as="geometry"/>
                </mxCell>
                <mxCell id="5" value="&lt;div style=&quot;color: rgb(191, 189, 182); background-color: rgb(13, 16, 23); font-family: Consolas, &amp;quot;Courier New&amp;quot;, monospace; font-weight: normal; font-size: 18px; line-height: 19px;&quot;&gt;&lt;div style=&quot;font-size: 18px;&quot;&gt;&lt;span style=&quot;color: rgb(255, 143, 64); font-size: 18px;&quot;&gt;class&lt;/span&gt;&lt;span style=&quot;color: rgb(191, 189, 182); font-size: 18px;&quot;&gt; &lt;/span&gt;&lt;span style=&quot;color: rgb(89, 194, 255); font-size: 18px;&quot;&gt;Picture&lt;/span&gt;&lt;span style=&quot;color: rgb(191, 189, 182); font-size: 18px;&quot;&gt;(&lt;/span&gt;&lt;span style=&quot;color: rgb(89, 194, 255); font-size: 18px;&quot;&gt;Content&lt;/span&gt;&lt;span style=&quot;color: rgb(191, 189, 182); font-size: 18px;&quot;&gt;):&lt;/span&gt;&lt;/div&gt;&lt;br style=&quot;font-size: 18px;&quot;&gt;&lt;div style=&quot;font-size: 18px;&quot;&gt;&lt;span style=&quot;color: rgb(191, 189, 182); font-size: 18px;&quot;&gt;&amp;nbsp; &amp;nbsp; &lt;/span&gt;&lt;span style=&quot;color: rgb(191, 189, 182); font-size: 18px;&quot;&gt;picture&lt;/span&gt;&lt;span style=&quot;color: rgb(191, 189, 182); font-size: 18px;&quot;&gt; &lt;/span&gt;&lt;span style=&quot;color: rgb(242, 150, 104); font-size: 18px;&quot;&gt;=&lt;/span&gt;&lt;span style=&quot;color: rgb(191, 189, 182); font-size: 18px;&quot;&gt; &lt;/span&gt;&lt;span style=&quot;color: rgb(89, 194, 255); font-size: 18px;&quot;&gt;models&lt;/span&gt;&lt;span style=&quot;color: rgb(191, 189, 182); font-size: 18px;&quot;&gt;.&lt;/span&gt;&lt;span style=&quot;color: rgb(89, 194, 255); font-size: 18px;&quot;&gt;ImageField&lt;/span&gt;&lt;span style=&quot;color: rgb(191, 189, 182); font-size: 18px;&quot;&gt;(upload_to&lt;/span&gt;&lt;span style=&quot;color: rgb(242, 150, 104); font-size: 18px;&quot;&gt;=&lt;/span&gt;&lt;span style=&quot;color: rgb(170, 217, 76); font-size: 18px;&quot;&gt;'images/'&lt;/span&gt;&lt;span style=&quot;color: rgb(191, 189, 182); font-size: 18px;&quot;&gt;)&lt;/span&gt;&lt;/div&gt;&lt;br style=&quot;font-size: 18px;&quot;&gt;&lt;div style=&quot;font-size: 18px;&quot;&gt;&lt;span style=&quot;color: rgb(191, 189, 182); font-size: 18px;&quot;&gt;&amp;nbsp; &amp;nbsp; &lt;/span&gt;&lt;/div&gt;&lt;/div&gt;" style="text;whiteSpace=wrap;html=1;fontSize=18;" parent="1" vertex="1">
                    <mxGeometry x="-1240" y="580" width="540" height="120" as="geometry"/>
                </mxCell>
                <mxCell id="6" value="&lt;div style=&quot;color: rgb(191, 189, 182); background-color: rgb(13, 16, 23); font-family: Consolas, &amp;quot;Courier New&amp;quot;, monospace; font-weight: normal; font-size: 18px; line-height: 19px;&quot;&gt;&lt;div style=&quot;font-size: 18px;&quot;&gt;&lt;span style=&quot;color: rgb(255, 143, 64); font-size: 18px;&quot;&gt;class&lt;/span&gt;&lt;span style=&quot;color: rgb(191, 189, 182); font-size: 18px;&quot;&gt; &lt;/span&gt;&lt;span style=&quot;color: rgb(89, 194, 255); font-size: 18px;&quot;&gt;Text&lt;/span&gt;&lt;span style=&quot;color: rgb(191, 189, 182); font-size: 18px;&quot;&gt;(&lt;/span&gt;&lt;span style=&quot;color: rgb(89, 194, 255); font-size: 18px;&quot;&gt;Content&lt;/span&gt;&lt;span style=&quot;color: rgb(191, 189, 182); font-size: 18px;&quot;&gt;):&lt;/span&gt;&lt;/div&gt;&lt;br style=&quot;font-size: 18px;&quot;&gt;&lt;div style=&quot;font-size: 18px;&quot;&gt;&lt;span style=&quot;color: rgb(191, 189, 182); font-size: 18px;&quot;&gt;&amp;nbsp; &amp;nbsp; &lt;/span&gt;&lt;span style=&quot;color: rgb(191, 189, 182); font-size: 18px;&quot;&gt;text&lt;/span&gt;&lt;span style=&quot;color: rgb(191, 189, 182); font-size: 18px;&quot;&gt; &lt;/span&gt;&lt;span style=&quot;color: rgb(242, 150, 104); font-size: 18px;&quot;&gt;=&lt;/span&gt;&lt;span style=&quot;color: rgb(191, 189, 182); font-size: 18px;&quot;&gt; &lt;/span&gt;&lt;span style=&quot;color: rgb(89, 194, 255); font-size: 18px;&quot;&gt;models&lt;/span&gt;&lt;span style=&quot;color: rgb(191, 189, 182); font-size: 18px;&quot;&gt;.&lt;/span&gt;&lt;span style=&quot;color: rgb(89, 194, 255); font-size: 18px;&quot;&gt;TextField&lt;/span&gt;&lt;span style=&quot;color: rgb(191, 189, 182); font-size: 18px;&quot;&gt;(max_length&lt;/span&gt;&lt;span style=&quot;color: rgb(242, 150, 104); font-size: 18px;&quot;&gt;=&lt;/span&gt;&lt;span style=&quot;color: rgb(210, 166, 255); font-size: 18px;&quot;&gt;2000&lt;/span&gt;&lt;span style=&quot;color: rgb(191, 189, 182); font-size: 18px;&quot;&gt;)&lt;/span&gt;&lt;/div&gt;&lt;br style=&quot;font-size: 18px;&quot;&gt;&lt;/div&gt;" style="text;whiteSpace=wrap;html=1;fontSize=18;" parent="1" vertex="1">
                    <mxGeometry x="-1830" y="580" width="440" height="100" as="geometry"/>
                </mxCell>
            </root>
        </mxGraphModel>
    </diagram>
</mxfile>